<svg width="78" height="28" viewBox="0 0 78 28" fill="none" xmlns="http://www.w3.org/2000/svg">
<path d="M14 28C21.732 28 28 21.732 28 14C28 6.26801 21.732 0 14 0C6.26801 0 0 6.26801 0 14C0 21.732 6.26801 28 14 28Z" fill="white"/>
<path d="M36 10.75C36.2174 10.7633 36.4351 10.73 36.6386 10.6524C36.8421 10.5748 37.0267 10.4547 37.18 10.3C37.4692 9.9317 37.6053 9.46609 37.56 9.00001V3.43001H40.09V9.00001C40.1214 9.52525 40.0404 10.0511 39.8524 10.5426C39.6645 11.0341 39.3739 11.4798 39 11.85C38.1638 12.5532 37.0908 12.9108 36 12.85C34.909 12.9119 33.8357 12.5541 33 11.85C32.6135 11.486 32.3098 11.0431 32.1097 10.5513C31.9095 10.0596 31.8175 9.53047 31.84 9.00001V3.43001H34.37V9.00001C34.3401 9.46482 34.4905 9.92327 34.79 10.28C34.9445 10.4428 35.1331 10.5694 35.3423 10.6507C35.5515 10.7319 35.7761 10.7659 36 10.75ZM45.14 12.86C44.409 12.8595 43.6841 12.7274 43 12.47C42.331 12.2257 41.7186 11.848 41.2 11.36L42.42 9.82001C42.7788 10.1456 43.1917 10.4062 43.64 10.59C44.1166 10.7815 44.6264 10.8766 45.14 10.87C45.4386 10.8863 45.736 10.8206 46 10.68C46.0985 10.6221 46.1794 10.5384 46.234 10.438C46.2886 10.3376 46.3149 10.2242 46.31 10.11C46.3083 9.9872 46.2729 9.86721 46.2077 9.76316C46.1424 9.65911 46.0498 9.57499 45.94 9.52001C45.5313 9.29048 45.0942 9.11565 44.64 9.00001L44.07 8.85001C43.3573 8.69606 42.7003 8.35027 42.17 7.85001C41.9528 7.62291 41.7834 7.35457 41.6718 7.06085C41.5601 6.76714 41.5085 6.45402 41.52 6.14001C41.5243 5.60292 41.6917 5.07981 42 4.64001C42.3266 4.19531 42.7695 3.8493 43.28 3.64001C43.8779 3.38928 44.5217 3.26664 45.17 3.28001C45.8554 3.28142 46.5342 3.41379 47.17 3.67001C47.795 3.9123 48.3736 4.26075 48.88 4.70001L47.62 6.29001C47.2712 5.99605 46.8844 5.75051 46.47 5.56001C46.0624 5.35877 45.6145 5.25277 45.16 5.25001C44.8687 5.23128 44.578 5.29358 44.32 5.43001C44.2172 5.48391 44.1323 5.56644 44.0755 5.6676C44.0187 5.76877 43.9925 5.88423 44 6.00001C44.0034 6.11128 44.0333 6.22012 44.0872 6.31752C44.1411 6.41491 44.2175 6.49804 44.31 6.56001C44.6395 6.77262 45.0057 6.92184 45.39 7.00001L46.08 7.19001C46.8759 7.35393 47.6082 7.74262 48.19 8.31001C48.5967 8.76251 48.8181 9.35162 48.81 9.96001C48.8198 10.5086 48.659 11.0467 48.35 11.5C48.0207 11.9462 47.5741 12.2923 47.06 12.5C46.452 12.7523 45.7981 12.8749 45.14 12.86V12.86ZM56.46 12.68L55.87 11H52.41L51.83 12.73H49.33L52.72 3.48001H55.66L59 12.68H56.46ZM53 9.08001H55.19L54.15 5.84001L53 9.08001ZM34.59 24.53V17.32H31.84V15.32H39.84V17.32H37.12V24.53H34.59ZM45.16 24.71C44.2974 24.7268 43.4456 24.5164 42.69 24.1C41.983 23.697 41.3988 23.1094 41 22.4C40.5727 21.6443 40.3552 20.7881 40.37 19.92C40.36 19.2642 40.4754 18.6125 40.71 18C40.9358 17.4303 41.2762 16.9129 41.71 16.48C42.1452 16.049 42.6619 15.7091 43.23 15.48C44.4634 15.0102 45.8265 15.0102 47.06 15.48C47.6279 15.7093 48.1446 16.0492 48.58 16.48C49.014 16.9128 49.3544 17.4301 49.58 18C49.8424 18.607 49.985 19.2589 50 19.92C50.0178 20.7871 49.8038 21.6433 49.38 22.4C48.9742 23.1083 48.383 23.6926 47.67 24.09C46.9035 24.5167 46.037 24.7308 45.16 24.71V24.71ZM45.16 22.62C45.5725 22.629 45.9776 22.5103 46.32 22.28C46.6613 22.04 46.931 21.7116 47.1 21.33C47.3005 20.8875 47.3996 20.4057 47.39 19.92C47.3979 19.4344 47.2989 18.953 47.1 18.51C46.9365 18.1115 46.6667 17.7656 46.32 17.51C45.974 17.2825 45.569 17.1612 45.155 17.1612C44.7409 17.1612 44.3359 17.2825 43.99 17.51C43.6432 17.7656 43.3734 18.1115 43.21 18.51C43.011 18.953 42.912 19.4344 42.92 19.92C42.9104 20.4057 43.0095 20.8875 43.21 21.33C43.379 21.7116 43.6486 22.04 43.99 22.28C44.3363 22.5087 44.7452 22.6241 45.16 22.61V22.62ZM51.41 24.53V15.28H55.06C55.9075 15.2623 56.745 15.4656 57.49 15.87C58.1786 16.2524 58.7492 16.8161 59.14 17.5C59.5322 18.2392 59.7373 19.0632 59.7373 19.9C59.7373 20.7368 59.5322 21.5608 59.14 22.3C58.7492 22.9839 58.1786 23.5476 57.49 23.93C56.745 24.3344 55.9075 24.5377 55.06 24.52L51.41 24.53ZM53.9 22.53H55.06C55.3598 22.5418 55.6582 22.4827 55.931 22.3576C56.2038 22.2325 56.4432 22.0449 56.63 21.81C57.0335 21.2609 57.238 20.5908 57.21 19.91C57.238 19.2292 57.0335 18.5591 56.63 18.01C56.4432 17.7751 56.2038 17.5875 55.931 17.4624C55.6582 17.3373 55.3598 17.2783 55.06 17.29H53.9V22.53ZM67.2 24.53L66.62 22.8H63.15L62.57 24.53H60.07L63.46 15.28H66.4L69.79 24.53H67.2ZM63.79 20.93H66L64.91 17.69L63.79 20.93ZM74.67 21.2V24.53H72.1V21.2L68.82 15.28H71.68L73.39 19L75.09 15.33H77.95L74.67 21.2Z" fill="white"/>
</svg>
